<svg xmlns="http://www.w3.org/2000/svg" xmlns:xlink="http://www.w3.org/1999/xlink" aria-hidden="true" role="img" class="iconify iconify--logos" width="31.88" height="32" preserveAspectRatio="xMidYMid meet" viewBox="0 0 256 257"><defs><linearGradient id="IconifyId1813088fe1fbc01fb466" x1="-.828%" x2="57.636%" y1="7.652%" y2="78.411%"><stop offset="0%" stop-color="#41D1FF"></stop><stop offset="100%" stop-color="#BD34FE"></stop></linearGradient><linearGradient id="IconifyId1813088fe1fbc01fb467" x1="43.376%" x2="50.316%" y1="2.242%" y2="89.03%"><stop offset="0%" stop-color="#FFEA83"></stop><stop offset="8.333%" stop-color="#FFDD35"></stop><stop offset="100%" stop-color="#FFA800"></stop></linearGradient></defs><path fill="url(#IconifyId1813088fe1fbc01fb466)" d="M255.153 37.938v134.885c0 18.757-15.225 34.002-34.002 34.002h-134.886a34.002 34.002 0 0 1-34.002-34.002V37.938c0-18.757 15.225-34.002 34.002-34.002h134.886c18.777 0 34.002 15.225 34.002 34.002z"></path><path fill="#fff" d="M191.579 50.265H64.43v50.265h56.896v16.755H64.43v50.265h56.896v16.755H64.43v50.265h56.896v16.755H64.43v50.265h56.896v16.755H64.43v50.265h56.896v16.755H64.43v50.265h127.149V50.265z"></path><path fill="url(#IconifyId1813088fe1fbc01fb467)" d="M154.029 119.826h-25.22l-16.755-25.22v25.22h-25.22V50.265h25.22v44.326l16.755-25.22h25.22l-25.22 37.885l25.22 37.885z"></path></svg>
